<?xml version="1.0" encoding="UTF-8"?>
<svg id="Layer_1" data-name="Layer 1" xmlns="http://www.w3.org/2000/svg" viewBox="0 0 241.58 40.14">
  <path d="M122.86,12.37c.06-.78-.09-1.67.03-2.43.13-.81,1.38-4.56,1.75-5.33.26-.56,1.93-2.21,2.49-2.55.51-.32,3.65-1.88,4.07-1.93,3.61-.41,6.35,1.28,8.59,3.93.56.66.62,1.29.12,2.01-.18.26-1.85,1.94-2.1,2.1-.57.37-1.32.33-1.87-.06-.37-.26-2.12-2.09-2.22-2.46-.19-.71.52-1.04.91-1.5l-.18-.3h-3.12c-.53.71-1.78,1.52-2.2,2.24-.17.29-1.58,4.3-1.58,4.54v1.74c3.34-.03,6.68.18,10.03.13.98-.02,1.82-.48,2.43.68.37.7.14.76.14,1.41,0,7,.02,14.01,0,21.01,0,.34.75,1.08,1.03,1.13s2.13.05,2.37-.02c.13-.04.9-.74.93-.87v-17.65c.07-.25-.67-.87-.84-.95-.34-.15-.93-.02-1.35-.09-1.54-.25-1.88-2.2-.48-2.94.5-.27,5.26-1.79,5.75-1.82.8-.05,1.55.51,1.68,1.31.04.27-.08.36-.08.42v1.74l1.28-1.54c1.29-.46,2.97-1.83,4.3-1.94.76-.07,3.33-.09,3.93.16.3.12,2.08,1.71,2.31,2.01.22.28.42.59.42.96.57-.25.9-.84,1.4-1.18,2.36-1.61,5.12-2.4,7.99-1.91.56.1,3.56,1.64,4.09,2.03.9.66,1.68,1.77,2.54,2.5.19,0,.75-1.57.92-1.84.52-.82,3.14-2.16,4.1-2.5s5.09-.34,6.25-.2c1.76.2,4.09,1.51,5.88,1.92.86.52.79,2.38.68,3.29s-.85,1.34-1.74,1.26c-1.02-.09-1.68-1.41-2.47-1.97-.26-.18-2.52-1.39-2.75-1.45-.54-.15-4.25-.13-4.77.04-.21.07-2.37,1.22-2.5,1.34-.15.14-1.21,2.21-1.21,2.34l1.24,2.47c1.01.33,1.96,1.01,2.94,1.35,2.15.74,4.99.92,7.02,1.74.71.29,2.95,1.42,3.56,1.84.26.18.41.36.58.62.29.44,1.79,3.38,1.87,3.77.09.42.09,2.04,0,2.47-.07.32-1.71,3.64-1.95,3.93s-.55.5-.87.69c-.83.52-3.16,1.75-4.05,1.83-1.5.12-5.67.2-7.06-.03-.54-.09-3.32-1.51-3.89-1.87-.37-.23-1.23-1.23-1.42-1.23-.36,0-.82.88-1.09,1.07-.51.35-3.92,2-4.43,2.05-1.08.12-4.47.14-5.49-.03-.45-.08-3.62-1.71-4.09-2.03-.62-.42-3.53-3.33-3.97-3.95-.33-.46-1.88-3.57-1.96-4.04-.21-1.22-.19-6.13-.02-7.4.14-1.06,1.41-2.76,1.86-3.79.06-.13.08-.26.04-.4s-1.3-1.38-1.5-1.51c-.23-.15-2.34-1.11-2.49-1.1-.64.37-1.98.77-2.47,1.26-.3.29-2.95,4.3-2.99,4.57v14.27c.03.18.68.89.84.96.35.16.98.02,1.44.12,1.87.4,1.51,3.09-.42,3.07h-17.41c-1.61-.02-2.37-1.97-.96-2.89.7-.45,1.44-.06,1.98-.3.11-.05.82-.72.84-.84l-.06-18.18c-.28-.13-.49-.44-.74-.58-.92-.55-3.4-1.61-4.42-1.7-1.14-.1-2.3-.11-2.7,1.13v19.2c.04.18.69.89.85.96.34.15.93.02,1.35.09,1.8.3,1.81,2.88-.21,3.09l-17.59-.05c-1.55-.38-1.63-2.58-.09-2.99.51-.13,1.18.02,1.54-.14.11-.05.82-.72.84-.84v-16.31c-.04-.2-1.13-2.33-1.29-2.55-.19-.26-2.51-1.49-2.87-1.57-.46-.09-1.76-.08-2.26-.03s-2.86,1.1-3.24,1.44c-.27.24-3.01,4.35-3.05,4.63v14.27c.03.18.68.89.84.96.34.15.93.02,1.35.09,1.81.3,1.81,2.88-.21,3.09-2.75-.19-5.81.24-8.53,0-2.3-.2-2.08-2.88-.34-3.11.4-.05.93.07,1.29-.03.13-.04.9-.74.93-.87v-17.65c.09-.25-.78-.95-.92-.99-.32-.1-.8.01-1.17-.03-1.6-.21-2.03-2.19-.58-2.96.48-.25,5.29-1.79,5.75-1.82.78-.04,1.55.53,1.68,1.31.04.27-.08.36-.08.42v1.74l1.33-1.61c1.15-.37,2.28-1.26,3.39-1.65.81-.29,4.05-.36,4.92-.19.98.19,3.94,1.25,4.92,1.68.28.12.54.22.75.45.3.32,2.02,3.84,2.09,4.27l.03,17.01.9.9,2.01.02.96-.72.07-19.51c.02-.27-.66-.99-.85-1.07-.6-.27-1.38.21-2.1-.3-.76-.54-.83-1.68-.17-2.33.09-.09.69-.43.77-.43h2.34ZM161.62,22.81h13.68c-.36-1.02-.61-2.11-1.02-3.12-.15-.37-1.26-2.7-1.41-2.85-.14-.14-2.6-1.4-2.82-1.44-2.44-.5-5.28.88-6.87,2.67l-1.56,4.74ZM161.62,25.81v3.54c0,.31,1.65,3.03,1.98,3.42,2.99,3.5,6.72,5.55,11.02,2.62.22-.15,1.67-1.54,1.77-1.71.22-.38.07-.92.37-1.43.39-.67,1.19-.85,1.91-.62,1.01.32,1.59,3.1,2.33,3.79.17.16,2.1,1.14,2.38,1.22.57.18,6.07.2,6.69.04.22-.06,2.31-1.12,2.46-1.26.14-.13,1.22-2.22,1.23-2.36l-1.26-2.45c-1.01-.34-1.95-1-2.94-1.35-2.16-.77-4.73-1.01-6.88-1.76-1.18-.41-2.19-1.27-3.38-1.66l-17.67-.03ZM6.7.91c0-.35-.61-.51-.9-.54-1.11-.12-3.83-.13-4.92,0-.53.06-.72.25-.78.78-.12,1.06-.13,3.98,0,5.05.02.2.24.78.42.78h4.98v4.32H.52c-.19,0-.4.58-.42.78-.13,1.09-.11,3.69,0,4.81.02.22.18.89.43.89h15.78v4.32H.52c-.19,0-.4.58-.42.78-.13,1.09-.11,3.69,0,4.81.02.22.18.89.43.89h4.98v4.32H.52c-.19,0-.4.58-.42.78-.13,1.06-.12,3.98,0,5.05.06.53.25.72.78.78,1.09.13,3.82.11,4.92,0,.29-.03.9-.19.9-.54v-4.86h4.2v4.74c0,.53.61.63,1.02.66,1.15.1,3.69.13,4.81,0,.2-.02.78-.24.78-.42v-15.9h4.32v15.9c0,.19.58.4.78.42,1.09.13,3.69.11,4.81,0,.22-.02.89-.18.89-.43v-4.98h4.32v4.98c0,.24.67.41.89.43,1.12.1,3.71.13,4.81,0,.55-.06.84-.34.9-.9.12-1.07.11-3.72,0-4.8-.03-.29-.19-.9-.54-.9h-4.98v-4.32h4.62c.67,0,.83-.17.9-.9.11-1.1.12-3.58,0-4.68-.02-.21-.21-.9-.42-.9h-15.9v-4.32h15.9c.21,0,.4-.69.42-.9.12-1.1.11-3.58,0-4.68-.07-.73-.23-.9-.9-.9h-4.62v-4.32h4.98c.35,0,.51-.61.54-.9.11-1.08.13-3.74,0-4.8-.06-.56-.35-.84-.9-.9-1.09-.13-3.69-.11-4.81,0-.22.02-.89.18-.89.43v4.98h-4.32V.79c0-.19-.58-.4-.78-.42-1.09-.13-3.69-.11-4.81,0-.22.02-.89.18-.89.43v15.9h-4.32V.79c0-.19-.58-.4-.78-.42-1.12-.13-3.65-.1-4.81,0-.4.03-1.02.14-1.02.66v4.74h-4.2V.91ZM51.82,14.05l3.67-1.67c1.7.1,3.6-.17,5.27-.02.72.06,3.87,1.62,4.5,2.1.73.57,3.04,2.87,3.6,3.6.58.77.91,1.88,1.41,2.67.07.12-.01.22.27.15.37-.77.82-1.91,1.32-2.58s3.38-3.55,4.04-4c.49-.33,3.5-1.84,3.97-1.91.87-.12,2.8-.12,3.69-.04.99.09,4.21,1.84,5.03,2.53,2.16,1.8,4.18,4.32,5.13,6.99.4,1.12.32,5.83.22,7.23-.07.99-1.47,4.04-2.1,4.86-.54.7-3.1,3.28-3.79,3.77-.51.36-3.64,1.99-4.16,2.08-.79.13-2.85.1-3.7.03-.76-.07-3.63-1.52-4.37-1.99-.53-.34-3.55-3.38-3.97-3.95-.53-.71-.93-1.89-1.32-2.7-.15-.11-1.51,2.72-1.68,2.94-.59.79-3.18,3.3-4,3.8-.91.56-3.36,1.84-4.34,1.9-2.98.21-4.69-.26-7.18-1.83-.59-.37-1-.87-1.52-1.3-.06,1.29.47,2.54-1.14,3.01-.85.25-4.4.21-5.41.12-1.36-.12-2.33-1.4-1.36-2.57.73-.87,1.55-.36,2.3-.58.13-.04.9-.74.93-.87V5.95c.07-.3-.71-.93-.93-.99-.38-.11-.94.03-1.39-.05-1.26-.23-1.65-1.71-.81-2.64.42-.47,4.42-1.58,5.34-1.89.67-.22.94-.62,1.73-.17.15.09.73.7.73.83v13.02ZM55.98,15.4c-.3.06-2.56,1.21-2.89,1.43-.2.14-1.21,1.1-1.26,1.26l-.02,14.13.11.25c1.02.81,1.98,2.26,3.04,2.96,2.73,1.79,5.68,1.81,8.36-.09.33-.23,1.21-1.14,1.39-1.49.35-.7,1.39-3.89,1.49-4.63.13-1.01.17-5.42-.02-6.32-.06-.3-1.26-2.64-1.48-2.96-.4-.56-2.37-2.51-2.94-2.94-1.55-1.16-3.85-2-5.79-1.6ZM80.58,15.4c-.24.05-2.7,1.31-2.85,1.47l-2.94,5.82-.05,6.54,3.05,6.19c.2.18,2.39,1.23,2.67,1.29.45.09,2.26.09,2.73.02.19-.03,2.66-1.21,2.76-1.32l3.01-5.99.05-6.42-3.12-6.24c-.13-.12-2.54-1.32-2.72-1.36-.43-.09-2.15-.09-2.59,0ZM221.98,36.85c-.16-.14-.74.59-.9.72-.59.45-3.72,2.09-4.37,2.23-.89.18-4.62.17-5.58.04-.31-.04-.6-.17-.85-.35-.6-.42-3.12-2.98-3.6-3.6-.15-.2-.37-.53-.44-.76-.18-.58-.17-3.53-.04-4.17.14-.7,1.88-3.97,2.41-4.43,1.5-1.3,3.8-2.36,5.42-3.58l7.83-1.59c-.1-1.09.16-2.48,0-3.53-.03-.18-1.03-2.24-1.13-2.35-.12-.12-.2-.11-.35-.13-.64-.08-2.74-.08-3.36.01-.76.12-1.93,1.1-2.75,1.3l-1.74,4.89c-.16.32-.6.66-.95.73-.41.08-2.19.09-2.59,0s-.98-.73-1.04-1.12c-.1-.65-.09-2.31.25-2.85.3-.49,3.43-3.6,3.95-3.97s2.89-1.61,3.48-1.8c.91-.31,4.86-.3,5.94-.18.49.05.86.26,1.25.55.66.49,3.01,2.82,3.49,3.47.22.3.35.63.45.99l.05,17.59c.04.13,2,1.45,2.23,1.49.42.09,2.3.09,2.71,0,.35-.08,1.57-.98,1.64-1.36v-17.04c-.03-.2-.78-.84-.92-.88-.32-.1-.8.01-1.17-.03-1.65-.21-2.03-2.25-.5-3,.79-.38,4.6-1.64,5.44-1.77.79-.12,1.39.13,1.73.85.31.65.09.73.09,1.34v21.12c.04.18.69.89.85.96.34.15.93.02,1.35.09,1.8.3,1.81,2.88-.21,3.09-4.11.44-9-.32-13.19-.01-.5-.07-3.8-1.7-4.31-2.05-.34-.23-.57-.51-.56-.94ZM221.86,24.37l-6.54,1.44c-2.52,2.27-4.98,5.11-4.23,8.8.03.16.83,1.79.95,1.93.1.13.11.16.29.19.6.11,2.81.07,3.49,0,.54-.05,2.68-1.05,3.17-1.39.98-.7,1.92-2.1,2.89-2.87v-8.1ZM198.46,35.83c-.49.49-.49,1.35-.12,1.92.2.31,2.21,2.24,2.49,2.31.26.07.93.19,1.46-.16.21-.13.32-.29.39-.38,1.16-1.58,2.05-1.97,1.99-2.85-.02-.22-.06-.42-.28-.75-.11-.16-1.66-1.71-1.88-1.91-1.78-1.55-2.79.88-4.04,1.82ZM233.94,2.19c-.29.18-1.86,1.73-2.06,2.02-.39.55-.43,1.3-.06,1.87.15.23,1.79,1.87,2.04,2.04.55.39,1.3.43,1.87.06.25-.16,1.92-1.84,2.1-2.1.5-.72.44-1.35-.12-2.01-.27-.32-1.53-1.59-1.84-1.85-.51-.43-1.38-.35-1.92-.02Z"/>
</svg>