<svg width="42" height="40.14" xmlns="http://www.w3.org/2000/svg" data-name="Layer 1">

 <g>
  <title>Layer 1</title>
  <path id="svg_1" d="m123.86,12.37c0.06,-0.78 -0.09,-1.67 0.03,-2.43c0.13,-0.81 1.38,-4.56 1.75,-5.33c0.26,-0.56 1.93,-2.21 2.49,-2.55c0.51,-0.32 3.65,-1.88 4.07,-1.93c3.61,-0.41 6.35,1.28 8.59,3.93c0.56,0.66 0.62,1.29 0.12,2.01c-0.18,0.26 -1.85,1.94 -2.1,2.1c-0.57,0.37 -1.32,0.33 -1.87,-0.06c-0.37,-0.26 -2.12,-2.09 -2.22,-2.46c-0.19,-0.71 0.52,-1.04 0.91,-1.5l-0.18,-0.3l-3.12,0c-0.53,0.71 -1.78,1.52 -2.2,2.24c-0.17,0.29 -1.58,4.3 -1.58,4.54l0,1.74c3.34,-0.03 6.68,0.18 10.03,0.13c0.98,-0.02 1.82,-0.48 2.43,0.68c0.37,0.7 0.14,0.76 0.14,1.41c0,7 0.02,14.01 0,21.01c0,0.34 0.75,1.08 1.03,1.13s2.13,0.05 2.37,-0.02c0.13,-0.04 0.9,-0.74 0.93,-0.87l0,-17.65c0.07,-0.25 -0.67,-0.87 -0.84,-0.95c-0.34,-0.15 -0.93,-0.02 -1.35,-0.09c-1.54,-0.25 -1.88,-2.2 -0.48,-2.94c0.5,-0.27 5.26,-1.79 5.75,-1.82c0.8,-0.05 1.55,0.51 1.68,1.31c0.04,0.27 -0.08,0.36 -0.08,0.42l0,1.74l1.28,-1.54c1.29,-0.46 2.97,-1.83 4.3,-1.94c0.76,-0.07 3.33,-0.09 3.93,0.16c0.3,0.12 2.08,1.71 2.31,2.01c0.22,0.28 0.42,0.59 0.42,0.96c0.57,-0.25 0.9,-0.84 1.4,-1.18c2.36,-1.61 5.12,-2.4 7.99,-1.91c0.56,0.1 3.56,1.64 4.09,2.03c0.9,0.66 1.68,1.77 2.54,2.5c0.19,0 0.75,-1.57 0.92,-1.84c0.52,-0.82 3.14,-2.16 4.1,-2.5s5.09,-0.34 6.25,-0.2c1.76,0.2 4.09,1.51 5.88,1.92c0.86,0.52 0.79,2.38 0.68,3.29s-0.85,1.34 -1.74,1.26c-1.02,-0.09 -1.68,-1.41 -2.47,-1.97c-0.26,-0.18 -2.52,-1.39 -2.75,-1.45c-0.54,-0.15 -4.25,-0.13 -4.77,0.04c-0.21,0.07 -2.37,1.22 -2.5,1.34c-0.15,0.14 -1.21,2.21 -1.21,2.34l1.24,2.47c1.01,0.33 1.96,1.01 2.94,1.35c2.15,0.74 4.99,0.92 7.02,1.74c0.71,0.29 2.95,1.42 3.56,1.84c0.26,0.18 0.41,0.36 0.58,0.62c0.29,0.44 1.79,3.38 1.87,3.77c0.09,0.42 0.09,2.04 0,2.47c-0.07,0.32 -1.71,3.64 -1.95,3.93s-0.55,0.5 -0.87,0.69c-0.83,0.52 -3.16,1.75 -4.05,1.83c-1.5,0.12 -5.67,0.2 -7.06,-0.03c-0.54,-0.09 -3.32,-1.51 -3.89,-1.87c-0.37,-0.23 -1.23,-1.23 -1.42,-1.23c-0.36,0 -0.82,0.88 -1.09,1.07c-0.51,0.35 -3.92,2 -4.43,2.05c-1.08,0.12 -4.47,0.14 -5.49,-0.03c-0.45,-0.08 -3.62,-1.71 -4.09,-2.03c-0.62,-0.42 -3.53,-3.33 -3.97,-3.95c-0.33,-0.46 -1.88,-3.57 -1.96,-4.04c-0.21,-1.22 -0.19,-6.13 -0.02,-7.4c0.14,-1.06 1.41,-2.76 1.86,-3.79c0.06,-0.13 0.08,-0.26 0.04,-0.4s-1.3,-1.38 -1.5,-1.51c-0.23,-0.15 -2.34,-1.11 -2.49,-1.1c-0.64,0.37 -1.98,0.77 -2.47,1.26c-0.3,0.29 -2.95,4.3 -2.99,4.57l0,14.27c0.03,0.18 0.68,0.89 0.84,0.96c0.35,0.16 0.98,0.02 1.44,0.12c1.87,0.4 1.51,3.09 -0.42,3.07l-17.41,0c-1.61,-0.02 -2.37,-1.97 -0.96,-2.89c0.7,-0.45 1.44,-0.06 1.98,-0.3c0.11,-0.05 0.82,-0.72 0.84,-0.84l-0.06,-18.18c-0.28,-0.13 -0.49,-0.44 -0.74,-0.58c-0.92,-0.55 -3.4,-1.61 -4.42,-1.7c-1.14,-0.1 -2.3,-0.11 -2.7,1.13l0,19.2c0.04,0.18 0.69,0.89 0.85,0.96c0.34,0.15 0.93,0.02 1.35,0.09c1.8,0.3 1.81,2.88 -0.21,3.09l-17.59,-0.05c-1.55,-0.38 -1.63,-2.58 -0.09,-2.99c0.51,-0.13 1.18,0.02 1.54,-0.14c0.11,-0.05 0.82,-0.72 0.84,-0.84l0,-16.31c-0.04,-0.2 -1.13,-2.33 -1.29,-2.55c-0.19,-0.26 -2.51,-1.49 -2.87,-1.57c-0.46,-0.09 -1.76,-0.08 -2.26,-0.03s-2.86,1.1 -3.24,1.44c-0.27,0.24 -3.01,4.35 -3.05,4.63l0,14.27c0.03,0.18 0.68,0.89 0.84,0.96c0.34,0.15 0.93,0.02 1.35,0.09c1.81,0.3 1.81,2.88 -0.21,3.09c-2.75,-0.19 -5.81,0.24 -8.53,0c-2.3,-0.2 -2.08,-2.88 -0.34,-3.11c0.4,-0.05 0.93,0.07 1.29,-0.03c0.13,-0.04 0.9,-0.74 0.93,-0.87l0,-17.65c0.09,-0.25 -0.78,-0.95 -0.92,-0.99c-0.32,-0.1 -0.8,0.01 -1.17,-0.03c-1.6,-0.21 -2.03,-2.19 -0.58,-2.96c0.48,-0.25 5.29,-1.79 5.75,-1.82c0.78,-0.04 1.55,0.53 1.68,1.31c0.04,0.27 -0.08,0.36 -0.08,0.42l0,1.74l1.33,-1.61c1.15,-0.37 2.28,-1.26 3.39,-1.65c0.81,-0.29 4.05,-0.36 4.92,-0.19c0.98,0.19 3.94,1.25 4.92,1.68c0.28,0.12 0.54,0.22 0.75,0.45c0.3,0.32 2.02,3.84 2.09,4.27l0.03,17.01l0.9,0.9l2.01,0.02l0.96,-0.72l0.07,-19.51c0.02,-0.27 -0.66,-0.99 -0.85,-1.07c-0.6,-0.27 -1.38,0.21 -2.1,-0.3c-0.76,-0.54 -0.83,-1.68 -0.17,-2.33c0.09,-0.09 0.69,-0.43 0.77,-0.43l2.34,0l-0.06,-0.02zm38.76,10.44l13.68,0c-0.36,-1.02 -0.61,-2.11 -1.02,-3.12c-0.15,-0.37 -1.26,-2.7 -1.41,-2.85c-0.14,-0.14 -2.6,-1.4 -2.82,-1.44c-2.44,-0.5 -5.28,0.88 -6.87,2.67l-1.56,4.74zm0,3l0,3.54c0,0.31 1.65,3.03 1.98,3.42c2.99,3.5 6.72,5.55 11.02,2.62c0.22,-0.15 1.67,-1.54 1.77,-1.71c0.22,-0.38 0.07,-0.92 0.37,-1.43c0.39,-0.67 1.19,-0.85 1.91,-0.62c1.01,0.32 1.59,3.1 2.33,3.79c0.17,0.16 2.1,1.14 2.38,1.22c0.57,0.18 6.07,0.2 6.69,0.04c0.22,-0.06 2.31,-1.12 2.46,-1.26c0.14,-0.13 1.22,-2.22 1.23,-2.36l-1.26,-2.45c-1.01,-0.34 -1.95,-1 -2.94,-1.35c-2.16,-0.77 -4.73,-1.01 -6.88,-1.76c-1.18,-0.41 -2.19,-1.27 -3.38,-1.66l-17.67,-0.03l-0.01,0zm-154.92,-24.9c0,-0.35 -0.61,-0.51 -0.9,-0.54c-1.11,-0.12 -3.83,-0.13 -4.92,0c-0.53,0.06 -0.72,0.25 -0.78,0.78c-0.12,1.06 -0.13,3.98 0,5.05c0.02,0.2 0.24,0.78 0.42,0.78l4.98,0l0,4.32l-4.98,0c-0.19,0 -0.4,0.58 -0.42,0.78c-0.13,1.09 -0.11,3.69 0,4.81c0.02,0.22 0.18,0.89 0.43,0.89l15.78,0l0,4.32l-15.79,0c-0.19,0 -0.4,0.58 -0.42,0.78c-0.13,1.09 -0.11,3.69 0,4.81c0.02,0.22 0.18,0.89 0.43,0.89l4.98,0l0,4.32l-4.99,0c-0.19,0 -0.4,0.58 -0.42,0.78c-0.13,1.06 -0.12,3.98 0,5.05c0.06,0.53 0.25,0.72 0.78,0.78c1.09,0.13 3.82,0.11 4.92,0c0.29,-0.03 0.9,-0.19 0.9,-0.54l0,-4.86l4.2,0l0,4.74c0,0.53 0.61,0.63 1.02,0.66c1.15,0.1 3.69,0.13 4.81,0c0.2,-0.02 0.78,-0.24 0.78,-0.42l0,-15.9l4.32,0l0,15.9c0,0.19 0.58,0.4 0.78,0.42c1.09,0.13 3.69,0.11 4.81,0c0.22,-0.02 0.89,-0.18 0.89,-0.43l0,-4.98l4.32,0l0,4.98c0,0.24 0.67,0.41 0.89,0.43c1.12,0.1 3.71,0.13 4.81,0c0.55,-0.06 0.84,-0.34 0.9,-0.9c0.12,-1.07 0.11,-3.72 0,-4.8c-0.03,-0.29 -0.19,-0.9 -0.54,-0.9l-4.98,0l0,-4.32l4.62,0c0.67,0 0.83,-0.17 0.9,-0.9c0.11,-1.1 0.12,-3.58 0,-4.68c-0.02,-0.21 -0.21,-0.9 -0.42,-0.9l-15.9,0l0,-4.32l15.9,0c0.21,0 0.4,-0.69 0.42,-0.9c0.12,-1.1 0.11,-3.58 0,-4.68c-0.07,-0.73 -0.23,-0.9 -0.9,-0.9l-4.62,0l0,-4.32l4.98,0c0.35,0 0.51,-0.61 0.54,-0.9c0.11,-1.08 0.13,-3.74 0,-4.8c-0.06,-0.56 -0.35,-0.84 -0.9,-0.9c-1.09,-0.13 -3.69,-0.11 -4.81,0c-0.22,0.02 -0.89,0.18 -0.89,0.43l0,4.98l-4.32,0l0,-5.01c0,-0.19 -0.58,-0.4 -0.78,-0.42c-1.09,-0.13 -3.69,-0.11 -4.81,0c-0.22,0.02 -0.89,0.18 -0.89,0.43l0,15.9l-4.32,0l0,-15.91c0,-0.19 -0.58,-0.4 -0.78,-0.42c-1.12,-0.13 -3.65,-0.1 -4.81,0c-0.4,0.03 -1.02,0.14 -1.02,0.66l0,4.74l-4.2,0l0,-4.86zm45.12,13.14l3.67,-1.67c1.7,0.1 3.6,-0.17 5.27,-0.02c0.72,0.06 3.87,1.62 4.5,2.1c0.73,0.57 3.04,2.87 3.6,3.6c0.58,0.77 0.91,1.88 1.41,2.67c0.07,0.12 -0.01,0.22 0.27,0.15c0.37,-0.77 0.82,-1.91 1.32,-2.58s3.38,-3.55 4.04,-4c0.49,-0.33 3.5,-1.84 3.97,-1.91c0.87,-0.12 2.8,-0.12 3.69,-0.04c0.99,0.09 4.21,1.84 5.03,2.53c2.16,1.8 4.18,4.32 5.13,6.99c0.4,1.12 0.32,5.83 0.22,7.23c-0.07,0.99 -1.47,4.04 -2.1,4.86c-0.54,0.7 -3.1,3.28 -3.79,3.77c-0.51,0.36 -3.64,1.99 -4.16,2.08c-0.79,0.13 -2.85,0.1 -3.7,0.03c-0.76,-0.07 -3.63,-1.52 -4.37,-1.99c-0.53,-0.34 -3.55,-3.38 -3.97,-3.95c-0.53,-0.71 -0.93,-1.89 -1.32,-2.7c-0.15,-0.11 -1.51,2.72 -1.68,2.94c-0.59,0.79 -3.18,3.3 -4,3.8c-0.91,0.56 -3.36,1.84 -4.34,1.9c-2.98,0.21 -4.69,-0.26 -7.18,-1.83c-0.59,-0.37 -1,-0.87 -1.52,-1.3c-0.06,1.29 0.47,2.54 -1.14,3.01c-0.85,0.25 -4.4,0.21 -5.41,0.12c-1.36,-0.12 -2.33,-1.4 -1.36,-2.57c0.73,-0.87 1.55,-0.36 2.3,-0.58c0.13,-0.04 0.9,-0.74 0.93,-0.87l0,-29.87c0.07,-0.3 -0.71,-0.93 -0.93,-0.99c-0.38,-0.11 -0.94,0.03 -1.39,-0.05c-1.26,-0.23 -1.65,-1.71 -0.81,-2.64c0.42,-0.47 4.42,-1.58 5.34,-1.89c0.67,-0.22 0.94,-0.62 1.73,-0.17c0.15,0.09 0.73,0.7 0.73,0.83l0,13.02l0.02,-0.01zm4.16,1.35c-0.3,0.06 -2.56,1.21 -2.89,1.43c-0.2,0.14 -1.21,1.1 -1.26,1.26l-0.02,14.13l0.11,0.25c1.02,0.81 1.98,2.26 3.04,2.96c2.73,1.79 5.68,1.81 8.36,-0.09c0.33,-0.23 1.21,-1.14 1.39,-1.49c0.35,-0.7 1.39,-3.89 1.49,-4.63c0.13,-1.01 0.17,-5.42 -0.02,-6.32c-0.06,-0.3 -1.26,-2.64 -1.48,-2.96c-0.4,-0.56 -2.37,-2.51 -2.94,-2.94c-1.55,-1.16 -3.85,-2 -5.79,-1.6l0.01,0zm24.6,0c-0.24,0.05 -2.7,1.31 -2.85,1.47l-2.94,5.82l-0.05,6.54l3.05,6.19c0.2,0.18 2.39,1.23 2.67,1.29c0.45,0.09 2.26,0.09 2.73,0.02c0.19,-0.03 2.66,-1.21 2.76,-1.32l3.01,-5.99l0.05,-6.42l-3.12,-6.24c-0.13,-0.12 -2.54,-1.32 -2.72,-1.36c-0.43,-0.09 -2.15,-0.09 -2.59,0zm141.4,21.45c-0.16,-0.14 -0.74,0.59 -0.9,0.72c-0.59,0.45 -3.72,2.09 -4.37,2.23c-0.89,0.18 -4.62,0.17 -5.58,0.04c-0.31,-0.04 -0.6,-0.17 -0.85,-0.35c-0.6,-0.42 -3.12,-2.98 -3.6,-3.6c-0.15,-0.2 -0.37,-0.53 -0.44,-0.76c-0.18,-0.58 -0.17,-3.53 -0.04,-4.17c0.14,-0.7 1.88,-3.97 2.41,-4.43c1.5,-1.3 3.8,-2.36 5.42,-3.58l7.83,-1.59c-0.1,-1.09 0.16,-2.48 0,-3.53c-0.03,-0.18 -1.03,-2.24 -1.13,-2.35c-0.12,-0.12 -0.2,-0.11 -0.35,-0.13c-0.64,-0.08 -2.74,-0.08 -3.36,0.01c-0.76,0.12 -1.93,1.1 -2.75,1.3l-1.74,4.89c-0.16,0.32 -0.6,0.66 -0.95,0.73c-0.41,0.08 -2.19,0.09 -2.59,0s-0.98,-0.73 -1.04,-1.12c-0.1,-0.65 -0.09,-2.31 0.25,-2.85c0.3,-0.49 3.43,-3.6 3.95,-3.97s2.89,-1.61 3.48,-1.8c0.91,-0.31 4.86,-0.3 5.94,-0.18c0.49,0.05 0.86,0.26 1.25,0.55c0.66,0.49 3.01,2.82 3.49,3.47c0.22,0.3 0.35,0.63 0.45,0.99l0.05,17.59c0.04,0.13 2,1.45 2.23,1.49c0.42,0.09 2.3,0.09 2.71,0c0.35,-0.08 1.57,-0.98 1.64,-1.36l0,-17.04c-0.03,-0.2 -0.78,-0.84 -0.92,-0.88c-0.32,-0.1 -0.8,0.01 -1.17,-0.03c-1.65,-0.21 -2.03,-2.25 -0.5,-3c0.79,-0.38 4.6,-1.64 5.44,-1.77c0.79,-0.12 1.39,0.13 1.73,0.85c0.31,0.65 0.09,0.73 0.09,1.34l0,21.12c0.04,0.18 0.69,0.89 0.85,0.96c0.34,0.15 0.93,0.02 1.35,0.09c1.8,0.3 1.81,2.88 -0.21,3.09c-4.11,0.44 -9,-0.32 -13.19,-0.01c-0.5,-0.07 -3.8,-1.7 -4.31,-2.05c-0.34,-0.23 -0.57,-0.51 -0.56,-0.94l-0.01,0.03zm-0.12,-12.48l-6.54,1.44c-2.52,2.27 -4.98,5.11 -4.23,8.8c0.03,0.16 0.83,1.79 0.95,1.93c0.1,0.13 0.11,0.16 0.29,0.19c0.6,0.11 2.81,0.07 3.49,0c0.54,-0.05 2.68,-1.05 3.17,-1.39c0.98,-0.7 1.92,-2.1 2.89,-2.87l0,-8.1l-0.02,0zm-23.4,11.46c-0.49,0.49 -0.49,1.35 -0.12,1.92c0.2,0.31 2.21,2.24 2.49,2.31c0.26,0.07 0.93,0.19 1.46,-0.16c0.21,-0.13 0.32,-0.29 0.39,-0.38c1.16,-1.58 2.05,-1.97 1.99,-2.85c-0.02,-0.22 -0.06,-0.42 -0.28,-0.75c-0.11,-0.16 -1.66,-1.71 -1.88,-1.91c-1.78,-1.55 -2.79,0.88 -4.04,1.82l-0.01,0zm35.48,-33.64c-0.29,0.18 -1.86,1.73 -2.06,2.02c-0.39,0.55 -0.43,1.3 -0.06,1.87c0.15,0.23 1.79,1.87 2.04,2.04c0.55,0.39 1.3,0.43 1.87,0.06c0.25,-0.16 1.92,-1.84 2.1,-2.1c0.5,-0.72 0.44,-1.35 -0.12,-2.01c-0.27,-0.32 -1.53,-1.59 -1.84,-1.85c-0.51,-0.43 -1.38,-0.35 -1.92,-0.02l-0.01,-0.01z"/>
 </g>
</svg>